<svg aria-hidden="true" width="30" height="27" viewBox="0 0 30 27" fill="none" xmlns="http://www.w3.org/2000/svg" style="color-scheme:light dark"><path d="m22.906 25.5-7.76-3.916L7.388 25.5V13.746h15.52V25.5Z" fill="#FFA91C"/><path d="M15.147 20.554c5.514 0 9.983-4.228 9.983-9.445 0-5.216-4.47-9.445-9.983-9.445-5.513 0-9.983 4.229-9.983 9.445 0 5.217 4.47 9.445 9.983 9.445Z" fill="#fff" stroke="#BDC9D1" stroke-width=".5" stroke-miterlimit="10"/><path d="M12.523 6.412h2.064c1.15 0 1.93.047 2.34.14a2.66 2.66 0 0 1 1.5.91c.385.46.578 1.028.578 1.705 0 .563-.134 1.059-.402 1.486a2.481 2.481 0 0 1-1.134.973c-.494.216-1.175.326-2.044.33l3.728 4.82H17.87l-3.72-4.82h-.592v4.82h-1.035V6.412Zm1.035 1.014v3.523l1.783.014c.69 0 1.2-.065 1.529-.197a1.58 1.58 0 0 0 .775-.627c.188-.291.282-.615.282-.972 0-.348-.094-.663-.282-.945a1.565 1.565 0 0 0-.74-.613c-.305-.122-.813-.183-1.522-.183h-1.825Z" fill="#1B374E"/><path fill-rule="evenodd" clip-rule="evenodd" d="M12.195 6.084h2.392c1.147 0 1.963.046 2.413.149a2.99 2.99 0 0 1 1.68 1.019c.44.526.653 1.172.653 1.915 0 .617-.147 1.174-.451 1.66-.3.487-.731.853-1.28 1.098l-.002.001c-.411.18-.923.289-1.526.334l3.747 4.844h-2.112l-3.72-4.82h-.103v4.82h-1.691V6.084Zm.655.656v9.708h.38v-4.82h1.081l3.72 4.82h.454l-3.725-4.816.664-.003c.847-.005 1.477-.113 1.912-.303.437-.196.762-.478.988-.845l.001-.002c.232-.369.352-.803.352-1.312 0-.61-.172-1.101-.502-1.495v-.001a2.335 2.335 0 0 0-1.322-.799c-.367-.084-1.111-.132-2.266-.132h-1.736Zm.38.358h2.153c.714 0 1.276.06 1.644.207.37.148.668.397.892.737.224.337.336.715.336 1.125 0 .418-.111.804-.334 1.15a1.908 1.908 0 0 1-.93.754c-.39.155-.95.22-1.65.22h-.003l-2.108-.016V7.098Zm.656.656v2.87l1.456.011c.68 0 1.138-.066 1.406-.173l.002-.001c.273-.108.475-.274.619-.499.153-.237.23-.5.23-.795a1.34 1.34 0 0 0-.227-.763l-.001-.002a1.237 1.237 0 0 0-.588-.488c-.242-.097-.695-.16-1.4-.16h-1.497Z" fill="#1B374E"/></svg>
